<svg width="48" height="33" viewBox="0 0 48 33" fill="none" xmlns="http://www.w3.org/2000/svg">
<path d="M38 4.5C42.9706 4.5 47 8.52944 47 13.5V19.5C47 24.4706 42.9706 28.5 38 28.5H10C5.02944 28.5 1 24.4706 1 19.5V13.5C1 8.52944 5.02944 4.5 10 4.5H38Z" stroke="black"/>
<path d="M16 12H26" stroke="#0B0B0B"/>
<path d="M16 19.5H26" stroke="#060606"/>
<line x1="29.5" y1="11" x2="29.5" y2="20" stroke="#0B0B0B"/>
<line y1="-0.5" x2="5.26086" y2="-0.5" transform="matrix(0.804458 0.59401 -0.685094 0.728455 29 19.875)" stroke="white"/>
<line y1="-0.5" x2="5.26086" y2="-0.5" transform="matrix(0.804458 0.59401 -0.685094 0.728455 29 19.875)" stroke="#050505"/>
<line y1="-0.5" x2="5.26086" y2="-0.5" transform="matrix(0.804458 -0.59401 -0.685094 -0.728455 29 11.125)" stroke="#090808"/>
<path d="M34 9C34.7218 9.60565 35.7473 11.2217 36.4258 12.748C37.1368 14.3477 37.098 16.2922 36.7898 17.8215C36.3762 19.0404 35.7597 20.2548 35.4468 21.7263C35.3445 22.0839 35.1401 22.3852 34.6196 23" stroke="#0D0D0D" stroke-linecap="round"/>
<path d="M33 22C33.165 22.165 33.33 22.33 33.6625 22.4975C33.995 22.665 34.49 22.83 35 23" stroke="#101010" stroke-linecap="round"/>
<line x1="10.5" y1="20" x2="10.5" y2="11" stroke="#050505"/>
<line x1="6.31235" y1="15.6096" x2="11.3123" y2="19.6096" stroke="#050505"/>
<line x1="11.3536" y1="11.3536" x2="6.35355" y2="16.3536" stroke="#050505"/>
<path d="M42 9.5C42.165 9.665 42.33 9.83 42.4975 10.245C42.665 10.66 42.83 11.32 43 12.5" stroke="#060606" stroke-linecap="round"/>
<path d="M4 21C4.165 21.165 4.33 21.33 4.4975 21.745C4.665 22.16 4.83 22.82 5 24" stroke="#060606" stroke-linecap="round"/>
<path d="M4 9C4.165 9.165 4.33 9.33 4.4975 9.745C4.665 10.16 4.83 10.82 5 12" stroke="#060606" stroke-linecap="round"/>
<path d="M42 19C42.165 19.165 42.33 19.33 42.4975 19.745C42.665 20.16 42.83 20.82 43 22" stroke="#060606" stroke-linecap="round"/>
<path d="M42 9.5C42.165 9.665 42.33 9.83 42.4975 10.245C42.665 10.66 42.83 11.32 43 12.5" stroke="#060606" stroke-linecap="round"/>
<path d="M35.5 0.5C35.665 0.83 35.83 1.16 36.08 1.5775C36.33 1.995 36.66 2.49 37.5 4" stroke="#060606" stroke-linecap="round"/>
<path d="M35.6976 32.2882C35.9512 32.0203 36.2049 31.7524 36.5117 31.3747C36.8185 30.9969 37.1708 30.5175 38.3024 29.2118" stroke="#060606" stroke-linecap="round"/>
</svg>
